<?xml version="1.0" encoding="utf-8" ?><svg xmlns="http://www.w3.org/2000/svg" xmlns:xlink="http://www.w3.org/1999/xlink" width="1024" height="1024" viewBox="0 0 1024 1024"><path transform="scale(2 2)" d="M328.296 177.41C319.151 146.666 343.577 118.067 373.639 114.231C403.562 113.359 428.956 130.836 432.384 161.939C432.771 165.447 432.705 168.938 432.659 172.46C437.74 176.695 463.917 193.953 463.94 199.116C463.966 204.817 455.407 218.18 451.23 222.234C429.262 243.555 414.81 222.626 399.373 222.677C386.242 222.721 384.769 238.216 381.715 247.718C374.893 268.949 365.451 295.676 350.09 311.465C350.339 329.838 346.257 349.536 346.28 368.632C363.512 370.831 367.004 394.114 348.921 396.97C341.849 398.087 329.226 397.786 323.623 393.672C315.464 387.682 316.334 377.061 315.454 368.033L312.331 334.509C311.853 329.477 311.648 324.342 310.872 319.351C308.614 318.663 306.107 318.349 303.787 317.908L290.871 315.502C276.007 312.862 261.035 310.522 246.229 307.593C230.79 334.657 215.031 339.844 193.509 357.551L193.509 368.632C204.21 369.422 211.675 378.472 208.035 388.981C203.658 398.245 195.637 397.272 187.115 397.277C161.995 397.292 161.413 388.603 161.326 366.306C161.307 361.316 161.026 356.176 161.351 351.203C162.061 340.328 174.232 336.684 173.374 324.692C172.771 316.256 168.038 308.412 164.519 300.884C155.477 281.543 156.989 274.037 156.211 255.011C146.876 254.566 138.533 258.129 129.68 260.374C110.413 265.261 95.7826 260.812 80.4404 249.836L69.7059 242.199C60.193 235.335 45.6394 228.278 48.0239 214.198C49.2722 206.827 55.0209 201.132 62.3924 200.053C75.8033 198.089 92.8794 220.625 106.792 225.387C121.592 230.453 130.761 223.6 144.415 221.423C153.831 219.922 163.56 220.364 172.917 222.06C192.725 200.835 211.351 202.512 238.307 202.514L279.301 202.512C299.406 202.496 297.051 204.005 312.36 190.997L328.296 177.41ZM376.985 124.515C354.553 125.271 335.656 144.522 336.392 167.168C336.831 180.691 350.86 194.797 360.963 203.275C371.62 189.257 381.739 173.192 379.202 154.518C378.483 149.221 379.631 139.568 386.561 145.575C389.368 148.009 389.595 153.163 389.722 156.615C390.468 176.831 380.106 197.632 366.586 212.306C357.225 222.467 337.14 193.56 332.914 186.755C326.307 192.565 309.411 208.324 302.183 210.887C295.016 213.428 286.199 212.611 278.674 212.605L239.594 212.589C215.078 212.587 196.943 210.165 178.966 230.721C164.97 246.725 162.978 269.54 170.32 288.984C177.643 308.377 192.565 325.242 175.95 344.743C174.429 346.528 172.769 348.245 171.978 350.504C171.218 352.673 171.087 377.387 171.679 380.809C173.222 389.715 194.954 388.293 197.662 386.022C205.537 379.416 185.932 378.586 184.725 376.654C182.534 373.147 182.786 353.411 184.258 351.783C186.456 349.351 189.762 347.453 192.406 345.493L209.547 332.826C229.194 319.147 244.584 298.291 243.767 273.561C243.635 269.591 241.893 264.107 245.683 261.274C248.019 259.528 251.136 261.182 252.553 263.328C257.2 270.37 252.91 289.405 250.25 298.078C269.499 301.105 290.569 304.587 309.619 308.729C309.551 305.585 308.338 297.769 310.417 295.556C312.207 293.651 315.824 293.792 317.631 295.588C320.271 298.214 320.153 311.693 320.572 315.635L325.493 366.233C326.365 374.919 324.16 386.727 335.195 387.187C338.536 387.327 347.386 387.97 349.945 385.762C356.532 380.079 336.046 377.312 335.731 370.992C335.544 367.247 336.347 362.272 336.649 358.403L342.322 285.508C342.612 281.422 344.458 269.069 351.332 275.97C354.432 279.082 351.961 289.767 351.649 293.79C361.669 277.762 367.131 258.716 373.28 240.953C374.999 235.988 377.837 225.963 380.544 222.052C392.556 204.707 409.369 215.044 422.7 219.941C437.791 225.485 447.549 212.925 452.996 200.79C446.62 195.765 440.105 190.877 433.645 185.959C419.121 174.903 423.558 180.022 422.148 163.937C420.2 141.717 400.036 121.914 376.985 124.515ZM63.3153 210.267C48.5379 216.092 66.2265 226.94 71.5557 230.813C90.8285 244.821 102.474 256.579 128.218 250.174C141.017 246.99 145.217 245.032 159.012 244.766L159.429 244.442C160.952 239.622 163.467 235.295 165.606 230.739C159.06 230.754 152.766 230.267 146.252 231.397C130.676 234.101 125.389 240.334 106.89 235.787C98.769 233.791 92.8496 229.244 86.218 224.444L74.6811 216.049C70.976 213.321 68.2398 209.909 63.3153 210.267Z"/><path transform="scale(2 2)" d="M406.163 176.337C402.572 177.449 398.757 175.452 397.625 171.867C396.492 168.282 398.468 164.456 402.046 163.304C405.653 162.142 409.517 164.137 410.658 167.751C411.8 171.364 409.783 175.216 406.163 176.337Z"/><path transform="scale(2 2)" d="M412.613 397.262C404.895 398.516 401.128 385.364 398.26 379.525L388.568 360.126C384.889 352.654 380.533 345.229 377.573 337.441C369.488 316.169 385.991 293.522 408.158 292.745C431.948 289.684 452.156 316.142 442.982 338.291C441.65 341.506 439.914 344.573 438.341 347.674L421.901 380.592C419.684 385.156 416.58 394.057 412.613 397.262ZM408.158 302.838C394.47 304.464 384.253 315.215 386.029 329.405C387.213 338.86 405.004 369.706 410.09 381.296L411.421 378.78C415.705 368.669 422.596 356.274 427.677 346.373C430.197 341.464 433.689 336.422 434.778 330.961C437.702 316.301 423.179 300.199 408.158 302.838Z"/><path transform="scale(2 2)" d="M412.857 346.096C402.446 347.448 392.933 340.047 391.682 329.625C390.43 319.202 397.922 309.76 408.356 308.609C418.649 307.473 427.936 314.842 429.17 325.124C430.405 335.405 423.126 344.763 412.857 346.096ZM408.145 318.939C403.626 320.129 400.881 324.705 401.958 329.252C403.036 333.799 407.543 336.657 412.115 335.693C415.175 335.048 417.645 332.794 418.567 329.805C419.489 326.816 418.718 323.563 416.553 321.305C414.388 319.048 411.17 318.142 408.145 318.939Z"/></svg>