<?xml version="1.0" encoding="utf-8" ?><svg xmlns="http://www.w3.org/2000/svg" xmlns:xlink="http://www.w3.org/1999/xlink" width="1024" height="1024" viewBox="0 0 1024 1024"><path transform="scale(2 2)" d="M185.445 191.674C143.277 191.126 121.022 199.816 103.876 152.597C92.795 122.081 121.53 128.735 141.13 128.149C155.548 127.718 156.454 121.026 162.114 110.107C170.657 93.6272 188.659 81.7812 207.276 81.3064C217.491 79.2802 229.611 83.8854 239.411 86.2317C250.591 88.9086 263.886 88.8411 269.786 99.4548C278.454 115.048 268.975 118.03 265.45 130.747L265.333 131.175C266.485 135.136 268.731 138.816 270.212 142.679C274.28 153.295 275.538 163.851 275.53 175.144C275.509 202.873 295.824 229.797 317.261 245.312C321.935 248.695 326.89 251.687 331.615 254.998C372.727 283.805 388.776 320.425 388.727 368.749C416.533 357.293 418.813 324.075 411.07 298.791C409.704 294.329 401.661 280.792 410.014 279.116C414.132 278.29 417.883 283.401 420.369 285.945C457.804 324.254 446.675 392.924 392.751 405.13C388.034 406.198 383.291 406.456 378.526 407.147C351.263 429.928 343.129 430.051 307.09 430.019L279.598 430.026C274.036 430.027 267.571 430.637 262.149 429.419C247.822 426.203 249.305 407.465 257.665 399.031C264.756 391.878 274.18 391.256 283.695 391.175C280.161 386.9 275.484 383.471 271.742 378.832C266.595 372.452 264.9 367.165 260.95 361.11C252.417 359.133 248.019 357.868 239.92 354.092L239.934 387.321C239.939 404.191 241.337 423.67 220.016 429.242C213.938 430.83 187.068 431.058 181.801 427.95C174.906 423.881 173.203 415.754 175.962 408.614C181.612 393.994 195.636 395.317 198.229 391.105C198.811 386.913 198.461 382.27 198.464 378.03L198.469 330.207C198.464 315.243 198.841 321.668 193.737 309.17C185.059 287.919 184.88 264.441 187.583 241.94C190.166 220.441 194.851 215.636 185.445 191.674ZM209.655 91.2584C194.014 91.4304 179.748 99.8703 171.899 113.311C169.72 117.042 168.309 121.144 166.202 124.903C157.942 139.641 142.313 137.953 128.002 137.992C126.822 145.676 123.401 152.624 116.518 156.655C127.43 184.28 142.363 181.563 166.315 181.531C180.38 181.513 198.03 184.292 209.774 174.769C211.192 173.62 215.405 169.096 216.896 168.881C220.921 168.302 224.166 173.036 222.44 176.674C218.228 185.55 204.99 190.027 195.753 191.674C204.057 206.974 201.54 222.787 198.529 238.628C194.343 260.646 194.371 283.49 202.988 304.533C207.815 316.321 208.642 310.711 208.553 324.884L208.515 375.143C208.514 383.636 210.995 396.706 201.916 401.559C195.135 405.185 187.969 404.421 185.162 413.553C184.206 416.662 185.752 418.998 188.919 419.782C191.85 420.509 212.483 420.175 215.753 419.645C230.984 417.175 229.807 403.34 229.806 391.981L229.798 363.557C229.797 356.361 228.93 335.596 236.009 330.965C238.318 329.454 241.988 330.531 243.296 332.902C244.931 335.862 242.186 340.297 241.07 343.042C246.165 345.836 251.217 347.922 256.736 349.714L256.77 349.237C257.027 345.344 256.52 341.458 256.664 337.563C257.554 313.602 277.276 296.34 301.052 297.754C307.127 298.115 331.211 305.54 330.074 313.563C328.621 323.816 318.876 314.584 316.135 312.943C278.594 290.473 238.702 342.887 293.563 386.17C297.697 389.432 303.967 391.631 302.366 397.826L302.201 398.081C298.856 403.147 278.037 398.979 269.129 403.032C264.612 405.087 260.516 410.561 261.291 415.689C262.175 421.545 270.879 420.059 275.054 420.049L315.777 420.034C335.415 420.046 351.023 418.597 366.61 404.328C377.185 394.647 368.578 398.553 383.458 396.561C428.88 390.481 444.182 342.635 423.155 304.969C429.348 336.116 419.679 373.492 384.609 380.289C375.835 381.99 378.333 372.149 378.48 366.949C379.69 324.138 364.313 293.339 330.16 266.479C322.809 260.698 314.441 256.49 307.042 250.82C285.716 234.477 268.825 209.694 265.68 182.599C264.288 170.615 266.322 163.198 262.088 150.844C261.137 148.07 259.878 145.27 259.361 142.384L259.129 141.151L258.804 141.448C252.315 147.454 248.491 156.596 238.122 156.139C219.59 155.321 206.925 109.053 213.063 104.131C220.931 97.8205 222.416 114.774 223.246 118.05C224.702 123.802 232.35 151.757 241.983 144.79C248.364 140.174 261.353 117.92 263.593 110.21C262.528 107.239 261.094 103.773 259.129 101.288C250.263 98.5438 217.255 90.5424 209.655 91.2584Z"/><path transform="scale(2 2)" d="M188.107 132.359C184.326 132.979 180.765 130.397 180.179 126.61C179.593 122.824 182.207 119.286 185.999 118.734C189.742 118.189 193.225 120.763 193.804 124.502C194.383 128.24 191.84 131.746 188.107 132.359Z"/><path transform="scale(2 2)" d="M390.839 220.241C387.663 223.418 384.461 226.576 381.345 229.811C371.237 240.301 371.321 240.351 362.082 230.714L327.871 195.597C323.921 191.543 319.263 187.597 316.117 182.889C300.066 158.865 317.013 130.772 345.429 128.177C357.066 129.08 362.481 131.736 371.473 139.093C406.515 109.291 446.49 149.105 428.269 180.89C424.404 187.633 415.271 195.608 409.603 201.28L390.839 220.241ZM343.436 139.093C330.266 139.295 320.062 151.45 320.404 164.297C320.758 177.533 330.156 183.59 338.644 192.326L358.875 212.758C363.028 216.966 366.9 221.639 371.473 225.4L392.625 203.959L407.676 188.773C411.677 184.736 416.86 180.494 419.641 175.517C428.945 158.875 415.316 138.213 396.801 138.756C380.744 139.227 377.825 151.258 371.943 152.455C367.689 153.321 355.697 133.302 343.436 139.093Z"/></svg>