<?xml version="1.0" encoding="utf-8" ?><svg xmlns="http://www.w3.org/2000/svg" xmlns:xlink="http://www.w3.org/1999/xlink" width="1024" height="1024" viewBox="0 0 1024 1024"><path transform="scale(2 2)" d="M189.227 124.66C199.67 102.607 231.306 87.2239 254.762 86.9871C283.045 85.8854 307.953 101.473 322.885 124.66C334.912 124.071 358.642 123.715 370.037 125.126C402.39 129.131 425.451 157.955 421.059 190.532C420.158 197.215 417.695 203.693 415.703 210.112L398.675 263.627C394.355 276.977 389.104 289.568 371.184 286.976C344.451 283.11 327.258 230.543 324.951 208.419C323.081 190.482 326.309 172.105 323.049 154.328C317.775 125.558 293.878 102.116 264.723 98.276C227.942 93.4322 194.399 120.558 188.06 156.498C184.937 174.202 188.002 195.044 185.472 213.986C185.033 231.101 175.956 251.212 166.95 265.966C171.006 279.109 178.952 291.255 188.544 300.997C190.625 303.112 195.294 306.166 196.435 308.663C198.396 312.951 192.192 328.607 189.4 332.419C187.169 335.464 183.966 337.709 181.241 340.287C170.385 350.557 161.722 365.921 159.09 380.727C158.485 384.129 158.524 388.065 157.331 391.295C155.429 396.446 145.624 397.816 148.059 382.428C150.959 364.099 159.17 345.928 172.938 333.191C185.145 321.899 179.291 327.007 186.052 313.654L186.269 313.234C174.701 305.23 164.043 288.842 158.994 275.763C153.135 282.353 146.29 287.929 136.958 288.029C119.465 288.215 116.645 274.134 112.637 261.449L96.1042 208.086C94.6937 203.599 92.9238 199.236 91.845 194.648C84.0637 161.557 108.316 127.855 142.07 124.875C148.259 124.329 154.687 124.648 160.906 124.648L189.227 124.66ZM147.462 135.51C117.953 135.568 95.129 164.012 102.539 192.944C103.746 197.655 105.516 202.31 106.982 206.955L123.433 259.435C125.782 266.893 127.184 277.421 137.205 277.5C145.354 276.134 152.189 268.056 156.73 261.68C171.057 241.561 175.824 216.721 176.154 192.426C176.465 169.448 174.25 157.173 183.253 135.51L147.462 135.51ZM328.859 135.51C330.949 143.14 333.72 150.098 334.525 158.088C335.789 170.635 334.875 184.282 335.028 196.957C335.296 219.148 347.912 262.922 369.109 274.908C383.205 282.878 387.041 264.006 389.703 255.584L402.755 214.703C405.188 207.059 409.473 196.135 410.184 188.413C412.229 166.2 400.207 144.995 378.378 137.961C368.946 134.922 359.165 135.494 349.403 135.497L328.859 135.51Z"/><path transform="scale(2 2)" d="M293.861 183.76C285.582 182.627 285.33 166.691 292.868 164.747C301.508 163.938 301.228 181.731 293.861 183.76Z"/><path transform="scale(2 2)" d="M219.945 183.76C210.946 183.886 210.317 167.745 217.305 164.747C226.707 164.421 226.113 179.451 219.945 183.76Z"/><path transform="scale(2 2)" d="M250.907 247.766C232.926 241.143 217.155 207.74 253.415 204.604C262.001 203.607 276.169 206.323 280.149 215.125C285.534 227.033 271.516 243.428 261.496 247.766L261.496 258.903C275.516 264.853 284.486 268.687 300.305 261.562C302.728 260.47 304.781 258.679 307.221 257.67C313.583 255.041 323.783 265.796 298.764 273.753C286.276 277.725 271.485 276.479 259.862 270.435C258.634 269.909 257.471 269.27 256.296 268.638C240.521 276.748 224.181 279.132 207.489 271.033C200.883 267.827 192.724 260.248 204.17 257.201C207.231 257.926 209.992 259.933 212.775 261.356C225.9 268.067 238.231 265.458 250.907 258.903L250.907 247.766ZM256.296 215.362C252.881 215.532 241.98 215.831 242.32 221.13C242.661 226.438 250.412 238.414 256.982 237.623C262.812 235.252 267.357 229.615 269.695 223.876C272.796 216.263 261.297 215.415 256.296 215.362Z"/><path transform="scale(2 2)" d="M267.375 424.091L244.241 424.104C229.053 424.144 211.927 424.122 211.691 403.744C211.457 383.528 211.694 363.279 211.695 343.059L211.672 326.309C211.663 322.745 211.377 318.837 211.992 315.324C215.289 296.492 233.739 299.148 247.534 299.151L283.564 299.14L308.979 299.125C324.9 299.122 339.47 298.903 339.754 319.589C340.033 339.887 339.777 360.225 339.773 380.527L339.768 398.27C339.766 402.024 340.064 406.228 339.334 409.912C336.016 426.644 316.749 424.084 304.551 424.081L267.375 424.091ZM228.865 310.234C220.123 313.025 222.493 324.956 222.491 332.135L222.492 386.757C222.494 394.446 219.948 409.357 228.28 412.635C233.525 414.698 283.922 413.263 293.349 413.263L313.248 413.283C316.38 413.292 319.792 413.642 322.885 413.265C331.454 408.392 328.883 400.61 328.867 391.996L328.863 334.889C328.866 329.566 329.15 324.104 328.908 318.798C328.416 307.996 318.076 310.212 310.295 310.219L248.76 310.227C242.167 310.225 235.447 309.954 228.865 310.234Z"/><path transform="scale(2 2)" d="M250.907 344.475C250.345 345.858 246.269 355.866 243.928 353.935C240.933 351.464 236.317 339.253 240.404 334.655C244.939 329.552 265.724 323.577 272.62 323.24C278.881 322.771 286.233 324.21 292.196 326.056C303.724 329.627 314.565 331.293 309.992 345.618C305.234 360.525 302.405 352.539 298.452 343.268C298.798 349.645 298.979 365.152 296.035 370.509C302.285 376.211 315.347 401.62 302.418 401.459C295.604 401.375 296.732 391.915 294.866 387.235C293.394 383.545 290.931 380.648 288.269 377.767C284.453 379.276 279.963 380.826 276.481 377.767C272.973 375.666 271.123 382.538 261.496 377.767C252.44 385.962 252.6 398.237 249.83 400.617C245.561 404.283 240.444 400.316 241.399 394.346C242.801 385.578 247.401 375.759 254.762 370.509C250.799 362.884 251.747 352.848 250.907 344.475ZM272.62 331.065C256.324 333.718 259.401 350.353 261.554 362.419C263.35 372.487 274.139 373.017 272.838 366.907C272.243 364.116 264.998 363.104 267.825 357.976C269.577 354.799 272.882 352.901 276.481 353.56L276.782 353.659C280.044 354.771 283.407 357.93 282.155 361.686C280.709 366.024 275.589 364.152 277.859 369.291C279.758 373.593 287.001 368.518 288.372 363.725C291.808 351.711 291.476 328.182 272.62 331.065Z"/><path transform="scale(2 2)" d="M267.399 348.563C265.971 349.18 264.314 348.525 263.694 347.1C263.073 345.674 263.722 344.015 265.146 343.391C266.576 342.763 268.243 343.416 268.866 344.847C269.489 346.279 268.832 347.944 267.399 348.563Z"/><path transform="scale(2 2)" d="M284.822 348.475C283.43 349.158 281.749 348.589 281.058 347.201C280.368 345.814 280.929 344.129 282.313 343.431C283.707 342.729 285.407 343.294 286.102 344.692C286.798 346.09 286.223 347.787 284.822 348.475Z"/></svg>