<?xml version="1.0" encoding="utf-8" ?><svg xmlns="http://www.w3.org/2000/svg" xmlns:xlink="http://www.w3.org/1999/xlink" width="1024" height="1024" viewBox="0 0 1024 1024"><path transform="scale(2 2)" d="M171.021 110.963C174.834 108.338 177.674 106.74 182.366 106.345C187.768 106.484 191.779 108.409 195.532 112.244C211.521 109.101 221.014 127.23 207.707 142.429C212.761 151.556 216.43 160.871 218.728 171.056C220.263 177.858 220.999 189.252 224.186 194.887C237.854 219.053 266.895 239.054 292.69 247.269C325.172 257.614 350.497 255.657 372.211 291.007C375.391 296.184 377.256 301.512 380.149 306.572C394.651 331.936 442.619 308.985 411.509 259.745C408.133 254.401 403.246 250.731 405.018 243.63C406.927 235.983 414.498 231.262 422.194 233.495C428.805 235.414 434.089 244.227 437.214 249.859C453.053 278.404 454.441 320.944 422.126 338.581C409.246 345.61 396.329 346.003 382.473 341.933C381.421 360.198 374.009 376.405 361.084 389.335C342.027 408.401 328.929 404.828 303.796 404.828L256.875 404.837L253.227 404.935C239.057 405.177 238.746 389.993 247.294 381.55C257.865 371.109 262.755 371.957 276.638 371.999C271.141 365.094 266.98 359.5 264.691 350.764C252.832 350.975 242.588 346.818 231.345 344.253C231.002 350.59 229.733 357.061 228.986 363.382L227.157 379.559C225.9 390.706 224.633 402.51 210.34 404.352C205.011 405.038 182.638 405.551 178.101 403.802C172.227 401.537 172.905 392.781 174.781 388.151C177.867 380.531 184.397 377.723 191.486 374.775C189.452 357.45 188.148 337.1 180.953 320.979C178.361 315.17 174.149 310.351 170.806 305.005C161.894 290.755 151.704 273.352 146.499 257.183C142.135 259.387 137.833 261.713 133.522 264.019C136.836 286.692 107.404 288.245 105.232 270.202C103.683 257.339 117.698 248.675 127.875 257.183C132.259 253.456 137.879 250.993 142.96 248.322C138.141 235.004 135.795 225.372 132.846 211.894L113.154 211.91C94.8839 211.912 81.0634 211.382 70.1943 193.808C66.2481 187.428 61.608 175.488 63.4462 167.875C66.0767 156.981 78.6008 156.249 87.5118 153.6C100.935 149.608 104.391 145.829 110.694 134.045C122.7 111.596 147.253 105.214 171.021 110.963ZM182.366 115.554C171.708 117.9 176.759 129.409 178.027 136.745C180.525 151.205 182.508 160.562 193.81 144.772C199.121 139.822 213.173 124.441 198.735 121.204C182.415 125.362 193.264 115.24 182.366 115.554ZM151.842 118.321C134.169 118.961 124.135 129.149 116.572 143.468C110.978 154.059 101.071 159.399 90.1229 162.806C78.1689 166.525 68.6917 164.112 73.6499 178.413C80.7835 198.991 90.2212 202.713 111.48 202.703L127.875 202.681L147.252 202.69C162.759 202.684 173.569 202.043 185.382 190.368C194.704 181.154 198.778 167.938 198.747 155.062L198.735 154.002C193.721 158.647 192.304 162.211 184.41 161.894C171.274 161.367 170.604 148.542 168.989 138.756C167.923 132.298 166.071 126.033 166.693 119.422C162.382 118.355 156.249 117.135 151.842 118.321ZM207.707 164.036C206.67 168.514 205.864 173.054 204.397 177.418C196.79 200.055 176.579 211.799 153.5 211.89C150.027 211.903 146.413 211.633 142.96 211.894C142.935 221.678 147.678 233.576 150.744 242.861L151.088 243.72C152.99 244.505 164.328 237.008 166.574 235.687C185.54 224.539 200.901 213.131 213.827 195.027C211.747 185.685 210.778 172.688 207.707 164.036ZM218.562 203.923C204.957 222.735 176.777 243.221 154.813 252.788C159.894 267.072 167.631 282.679 175.703 295.555C180.389 303.03 186.186 309.834 189.714 317.997C192.893 325.351 203.725 372.589 200.498 379.946C197.69 386.347 185.178 381.651 182.366 395.682L182.829 395.64C203.732 393.844 215.432 404.041 218.071 378.527L219.452 365.322C220.097 359.316 223.989 318.546 225.867 314.432C227.061 311.819 230.689 310.854 232.941 312.705C235.882 315.121 233.082 329.905 232.514 334.018C242.37 338.436 252.424 340.187 263.002 341.933C262.973 303.846 297.232 279.919 332.468 295.835C341.895 300.094 336.458 306.601 332.227 305.693C329.016 305.004 325.979 303.088 322.829 302.074C288.524 291.027 259.275 329.301 278.411 358.888C281.253 363.282 285.986 366.785 287.126 371.999C293.068 371.809 300.82 374.978 294.562 380.165C292.219 382.108 280.168 381.229 276.638 381.25C266.599 381.2 261.863 380.409 254.131 387.98C242.705 399.169 264.303 395.698 270.98 395.689L321.299 395.692C325.521 395.691 330.022 395.983 334.18 395.153C355.326 390.933 371.77 362.94 373.193 342.268C374.401 324.72 375.151 330.408 388.893 334.064C404.988 338.345 421.994 331.519 431.211 317.772C452.717 285.698 421.662 227.727 413.634 246.303C415.481 250.197 418.555 253.309 420.739 256.995C433.081 277.827 437.536 310.191 412.203 322.948C398.49 329.853 378.959 325.5 371.794 311.184C360.509 288.636 351.329 274.249 325.354 265.359C315.008 261.818 304.169 260.3 293.69 257.245C262.29 248.092 238.572 229.725 218.562 203.923ZM118.377 263.114C115.6 263.704 113.812 266.413 114.36 269.198C114.909 271.983 117.593 273.811 120.385 273.303C122.229 272.968 123.748 271.666 124.362 269.896C124.976 268.125 124.589 266.162 123.35 264.757C122.11 263.352 120.209 262.724 118.377 263.114Z"/><path transform="scale(2 2)" d="M136.596 160.257C128.879 161.759 126.732 148.428 132.846 144.772C140.708 144.148 142.707 156.618 136.596 160.257Z"/><path transform="scale(2 2)" d="M289.653 164.036C289.698 158.004 287.019 146.465 293.929 144.772L295.555 144.748C321.675 144.543 321.208 139.819 321.168 164.036C339.037 165.339 339.253 159.037 339.23 179.594C339.208 199.4 340.273 196.411 321.168 196.497C320.72 202.1 323.887 212.823 316.535 214.743C309.791 214.715 294.155 216.904 289.653 211.894C289.129 207.768 289.647 200.992 289.653 196.497C282.484 196.527 272.093 199.423 271.15 190.931C270.726 187.123 269.798 168.124 272.598 165.168C274.419 163.245 286.443 164.019 289.653 164.036ZM298.498 154.002C298.528 174.393 300.564 173.385 280.236 173.253L280.236 187.447C300.327 187.393 298.498 184.676 298.498 205.715L312.161 205.715C312.103 185.735 310.421 187.344 330.341 187.447L330.341 173.253C309.925 173.333 312.106 174.209 312.161 154.002L298.498 154.002Z"/></svg>