<?xml version="1.0" encoding="utf-8" ?><svg xmlns="http://www.w3.org/2000/svg" xmlns:xlink="http://www.w3.org/1999/xlink" width="1024" height="1024" viewBox="0 0 1024 1024"><path transform="scale(2 2)" d="M292.595 319.212C243.716 357.018 171.811 354.949 124.449 315.483C67.187 267.768 57.9708 181.777 106.123 124.208C132.418 92.7715 164.378 78.2385 204.121 74.7381C208.897 74.7168 213.71 74.6016 218.478 74.9298C325.945 82.3267 383.824 202.79 320.088 292.912C327.84 300.423 335.585 308.064 343.131 315.78C352.35 310.173 359 318.028 365.437 323.622C369.76 327.379 374.143 331.056 378.537 334.729L409.045 360.519C415.381 365.84 422.817 371.285 428.327 377.439C449.046 400.586 429.933 437.738 398.366 435.438C379.103 434.035 361.057 408.965 348.238 394.165C338.549 383.579 325.673 369.889 317.066 358.664C313.252 353.688 313.079 348.539 316.265 342.968C308.595 334.865 300.489 327.103 292.595 319.212ZM208.33 85.5403C139.149 86.9758 84.2397 144.236 85.7035 213.416C87.1672 282.595 144.45 337.481 213.629 335.99C282.768 334.498 337.616 277.256 336.153 208.116C334.69 138.977 277.47 84.1055 208.33 85.5403ZM313.112 300.932C309.118 304.964 304.571 308.896 300.977 313.256C306.434 317.796 319.897 333.447 324.021 335.788C327.487 331.206 331.908 327.385 335.972 323.346C332.416 319.702 316.428 303.137 313.112 300.932ZM349.952 324.659L333.452 341.196C330.273 344.412 326.989 347.574 324.021 350.989C328.369 355.338 332.165 360.279 336.282 364.852L369.213 401.881C379.072 413.012 384.955 424.304 401.025 424.907C424.802 423.798 435.003 397.265 418.972 382.684C410.365 374.856 350.78 324.85 349.952 324.659Z"/><path transform="scale(2 2)" d="M149.565 229.503C144.919 234.212 140.048 238.32 133.138 238.628C121.898 239.13 111.974 229.307 111.776 218.19C111.661 211.731 115.255 207.546 118.572 202.414C127.031 189.328 126.631 174.197 132.764 160.405C138.049 148.52 150.085 139.166 162.591 136.205C173.51 133.619 168.228 135.373 177.396 129.68C186.439 124.064 196.434 120.749 207.107 120.538C217.991 118.467 234.011 123.826 242.881 129.519C251.078 134.779 246.164 133.848 256.184 136.116C291.576 144.124 286.555 169.625 297.84 195.564C303.157 207.786 314.689 212.432 304.387 227.665C293.971 243.066 283.951 238.854 270.31 229.503C230.902 264.568 266.959 286.607 261.49 296.089C260 298.672 256.475 299.01 254.11 297.487C248.763 294.042 243.47 273.81 241.972 267.494C232.168 272.895 221.962 272.932 212.393 266.615C211.717 265.841 210.978 265.113 210.267 264.37C200.798 273.227 188.398 273.555 177.548 266.615C177.253 273.125 170.407 301.801 160.433 296.19C158.728 295.23 158.147 293.52 157.648 291.758C158.406 288.696 160.48 286.146 161.985 283.414C172.939 263.529 166.548 243.464 149.565 229.503ZM208.663 131.017C174.113 132.093 169.133 158.9 163.383 159.199C155.832 159.592 157.991 152.212 159.715 148.179C135.537 161.632 141.661 178.354 132.113 199.518C128.845 206.763 119.73 215.772 123.333 222.503C126.076 227.628 132.289 229.516 137.278 226.517C148.951 219.502 159.263 197.777 159.701 183.763C159.777 181.31 158.933 175.871 159.744 173.781C161.294 169.784 166.959 169.444 168.942 173.188C175.334 185.258 163.796 210.706 156.683 221.303C162.426 225.923 167.613 231.676 171.452 237.991C176.024 245.512 177.818 255.946 186.682 259.743C197.79 264.502 206.076 257.647 205.489 245.795C185.561 231.526 182.205 211.961 210.267 212.221C238.357 212.317 234.869 230.978 215.803 245.795C214.4 261.199 228.669 265.846 238.181 257.01C244.19 251.427 243.662 246.004 247.45 239.415C251.121 233.031 257.902 226.289 263.333 221.303C257.263 211.125 242.801 178.685 253.514 171.894C262.771 166.026 261.323 184.187 261.723 187.212C263.739 202.438 272.901 226.195 291.2 226.992C303.662 212.905 295.6 216.136 289.126 202.046C282.204 186.983 279.556 152.75 259.729 148.179C263.695 153.931 262.236 161.109 255.587 159.154C251.962 158.089 249.879 151.076 247.437 148.11C239.295 138.222 222.056 128.903 208.663 131.017ZM207.107 222.591C204.619 222.898 202.397 223.395 200.079 224.365C201.576 229.207 205.866 233.723 210.267 236.154L212.393 234.832C222.99 226.765 221.642 220.547 207.107 222.591Z"/><path transform="scale(2 2)" d="M185.615 197.086C182.415 197.361 179.591 195.006 179.288 191.808C178.985 188.611 181.315 185.767 184.51 185.436C187.744 185.1 190.631 187.466 190.938 190.703C191.245 193.94 188.854 196.807 185.615 197.086Z"/><path transform="scale(2 2)" d="M236.619 197.272C233.36 197.782 230.305 195.552 229.8 192.293C229.294 189.033 231.529 185.982 234.789 185.481C238.042 184.982 241.086 187.211 241.59 190.463C242.095 193.715 239.87 196.762 236.619 197.272Z"/><path transform="scale(2 2)" d="M210.267 313.256C205.319 314.164 191.122 312.09 186.173 310.399C180.369 308.417 179.916 302.086 185.411 299.747C188.505 299.695 194.033 301.397 197.445 301.928C201.255 302.521 208.088 302.469 211.332 303.795C215.725 305.589 214.268 311.518 210.267 313.256Z"/></svg>