<svg width="611" height="797" viewBox="0 0 611 797" fill="none" xmlns="http://www.w3.org/2000/svg">
<path d="M321.938 0.312516C327.789 3.53669 330.291 9.93318 332.166 16.1355C332.486 17.275 332.486 17.275 332.812 18.4375C333.055 19.2739 333.297 20.1102 333.547 20.9719C338.793 39.5152 343.182 58.3648 347 77.25C347.208 78.2725 347.415 79.2949 347.629 80.3484C348.471 84.654 349.102 88.5985 349 93C349.66 93 350.32 93 351 93C351.159 92.4065 351.319 91.8129 351.483 91.2014C353.385 84.464 355.963 78.2656 358.938 71.9375C359.415 70.9111 359.892 69.8847 360.384 68.8271C361.914 65.5473 363.456 62.2733 365 59C365.519 57.8935 366.038 56.787 366.573 55.647C382.075 22.6445 382.075 22.6445 388 19C391.435 19 392.657 19.667 395.125 22.0625C406.525 39.9218 405.477 66.9671 406.527 87.4805C406.568 88.2704 406.609 89.0603 406.652 89.8741C406.849 93.7361 407.027 97.5978 407.178 101.462C407.243 102.88 407.309 104.297 407.375 105.715C407.424 106.954 407.473 108.192 407.523 109.469C408.331 115.455 410.269 120.152 415 124C416.812 125.1 418.667 126.13 420.551 127.102C422.177 127.953 422.177 127.953 423.836 128.821C424.983 129.417 426.13 130.012 427.312 130.625C452.273 143.801 469.265 158.949 483.389 183.545C491.533 197.247 506.34 200.339 520.805 204.193C524.794 205.258 528.773 206.355 532.754 207.449C533.546 207.666 534.338 207.884 535.154 208.107C599.162 225.698 599.162 225.698 608.375 241.75C611.711 249.277 610.164 256.362 607.645 263.957C601.683 279.377 592.884 293.809 583 307C582.252 308.025 581.505 309.05 580.734 310.105C570.791 323.072 558.237 330.663 542.125 333.313C528.871 334.78 515.837 333.821 502.625 332.563C501.132 332.426 499.638 332.29 498.145 332.154C486.865 331.122 486.865 331.122 481.27 330.422C475.549 329.771 469.814 329.737 464.062 329.688C462.389 329.644 462.389 329.644 460.682 329.6C453.014 329.541 445.378 330.219 439.332 335.44C433.704 342.029 434.231 351.251 434.75 359.404C436.238 374.856 440.723 389.882 444.973 404.748C447.538 413.891 449.593 423.054 451.375 432.375C451.733 434.235 451.733 434.235 452.097 436.133C454.712 450.213 456.343 464.077 456.688 478.375C456.706 479.099 456.725 479.824 456.745 480.57C457.999 529.716 443.289 575.056 423.535 619.554C400.386 671.751 393.867 718.257 412.002 773.178C412.388 774.364 412.774 775.551 413.172 776.773C413.523 777.83 413.875 778.886 414.237 779.974C415.04 783.159 415.299 785.731 415 789C412.278 792.403 410.291 794.234 406 795C405.67 795.66 405.34 796.32 405 797C404.34 796.67 403.68 796.34 403 796C403 795.34 403 794.68 403 794C402.387 794.071 401.774 794.141 401.142 794.214C392.895 795.072 384.692 795.143 376.412 795.134C374.852 795.136 373.293 795.138 371.733 795.141C367.473 795.147 363.213 795.147 358.953 795.145C354.349 795.145 349.745 795.151 345.141 795.155C336.133 795.164 327.126 795.166 318.118 795.167C310.797 795.168 303.477 795.17 296.156 795.173C275.395 795.182 254.633 795.186 233.871 795.185C232.753 795.185 231.635 795.185 230.483 795.185C229.364 795.185 228.244 795.185 227.091 795.185C208.928 795.185 190.766 795.194 172.604 795.208C153.948 795.223 135.292 795.23 116.637 795.229C106.165 795.228 95.694 795.231 85.2226 795.242C76.313 795.251 67.4034 795.253 58.4938 795.247C53.9481 795.243 49.4025 795.243 44.8568 795.252C40.6959 795.26 36.5351 795.258 32.3741 795.25C30.8689 795.248 29.3637 795.25 27.8586 795.255C25.8117 795.262 23.7651 795.257 21.7183 795.249C20.5816 795.249 19.445 795.249 18.274 795.25C13.8581 794.913 9.54289 794.337 6.12494 791.375C-7.60553 762.388 9.42721 710.813 18.9374 682.312C19.1842 681.571 19.4309 680.83 19.6852 680.067C24.6576 665.245 30.3013 650.689 37.5194 636.805C39.4953 632.987 41.4435 629.155 43.3866 625.32C53.4482 605.53 64.521 586.535 76.2594 567.688C81.7126 558.909 86.9043 549.991 91.9999 541C92.413 540.273 92.8262 539.546 93.2519 538.796C122.98 486.324 144.72 431.47 161.125 373.512C161.4 372.539 161.4 372.539 161.681 371.548C163.721 364.338 165.748 357.125 167.76 349.908C171.911 335.062 176.324 320.337 181.124 305.688C182.01 302.97 182.88 300.247 183.747 297.522C194.308 264.345 208.196 230.769 228 202C228.491 201.272 228.981 200.544 229.487 199.793C234.722 192.028 240.179 184.581 246.312 177.5C246.814 176.919 247.315 176.337 247.832 175.738C249.908 173.346 251.996 171.004 254.203 168.73C260.391 161.932 260.895 153.757 262 145C264.813 123.98 268.893 103.029 276 83C276.313 82.1167 276.626 81.2333 276.949 80.3232C283.659 61.5854 291.5 43.6524 300.562 25.9375C301.08 24.9147 301.598 23.8919 302.132 22.8381C314.273 -0.502884 314.273 -0.502883 321.938 0.312516Z" fill="#5ED9FA"/>
</svg>
